<svg width="45" height="29" viewBox="0 0 45 29" fill="none" xmlns="http://www.w3.org/2000/svg">
<path d="M18.4554 19.5056C18.4554 24.4123 14.4777 28.39 9.57099 28.39C4.66427 28.39 0.686584 24.4123 0.686584 19.5056C0.686584 16.9186 1.79229 14.5898 3.55689 12.9661C5.13918 11.5102 7.25126 10.6212 9.57099 10.6212C14.4777 10.6212 18.4554 14.5988 18.4554 19.5056Z" fill="#197BBD"/>
<path d="M44.0964 19.5056C44.0964 24.4123 40.1187 28.39 35.212 28.39C30.3053 28.39 26.3276 24.4123 26.3276 19.5056C26.3276 18.8788 26.3925 18.2672 26.5159 17.6771C27.3589 13.6475 30.932 10.6212 35.212 10.6212C40.1187 10.6212 44.0964 14.5988 44.0964 19.5056Z" fill="#197BBD"/>
<path d="M34.119 8.8844C34.119 13.356 30.8155 17.056 26.5159 17.6771C26.0975 17.7375 25.6697 17.7688 25.2346 17.7688C20.9222 17.7688 17.3274 14.6964 16.5198 10.6212C16.4085 10.0595 16.3501 9.47876 16.3501 8.8844C16.3501 8.10381 16.4508 7.34673 16.6399 6.62544C17.6392 2.81276 21.1084 0 25.2346 0C30.1413 0 34.119 3.97768 34.119 8.8844Z" fill="#197BBD"/>
<path d="M18.4554 19.5056C18.4554 24.4123 14.4777 28.39 9.57099 28.39H35.212C30.3053 28.39 26.3276 24.4123 26.3276 19.5056C26.3276 18.8788 26.3925 18.2672 26.5159 17.6771C26.0975 17.7375 25.6697 17.7688 25.2346 17.7688C20.9222 17.7688 17.3274 14.6964 16.5198 10.6212H10.7245H9.57099C14.4777 10.6212 18.4554 14.5988 18.4554 19.5056Z" fill="#197BBD"/>
<path d="M16.5198 10.6212C16.4085 10.0595 16.3501 9.47876 16.3501 8.8844C16.3501 8.10381 16.4508 7.34673 16.6399 6.62544C15.8975 7.95734 13.675 10.6212 10.7245 10.6212H16.5198Z" fill="#197BBD"/>
</svg>
